<svg width="156" height="40" viewBox="0 0 156 40" fill="none" xmlns="http://www.w3.org/2000/svg">
<path d="M0 20C0 8.95431 8.95431 0 20 0H38V40H20C8.9543 40 0 31.0457 0 20V20Z" fill="#CBCDCB"/>
<path d="M10.4 13.2H13.136L18.08 17.856V21.48L13.424 17.088V27H10.4V13.2ZM26.936 13.2H24.224L19.256 17.856V21.48L23.912 17.088V27H26.936V13.2Z" fill="#183B1E"/>
<path d="M44.4 8.2H47.136L52.08 12.856V16.48L47.424 12.088V22H44.4V8.2ZM60.936 8.2H58.224L53.256 12.856V16.48L57.912 12.088V22H60.936V8.2ZM69.8062 17.32L72.5422 15.664H76.4782V17.512H72.8542V19.48H76.4782V22.024H72.5422L69.8062 20.368V17.32ZM69.8062 14.776V13.12L72.5422 11.44H76.4782V13.696H72.8542V14.776H69.8062ZM84.2062 13.12L81.4703 11.44H77.5342V13.696H81.1583V15.664H77.5342V17.512H81.1583V19.48H77.6302V22.024H84.2062V13.12ZM99.315 11.512H102.915V13.744H99.315V11.512ZM105.939 18.4V20.344L103.203 22H99.315V19.48H102.915V18.4H105.939ZM98.235 9.856V19.48V22L95.235 20.344V13.744L93.075 13.768V12.712L98.235 9.856ZM115.543 8.2H118.495V11.44H122.143V13.744H118.495V22.024H115.543V8.2ZM129.823 13.096L127.111 11.44H123.199V13.744H126.799V22.024H129.823V13.096Z" fill="#183B1E"/>
<path d="M43.6 27.56L45.88 26.18H49.16V28.06H46.14V32.88H49.08V35H45.88L43.6 33.62V27.56ZM55.6 28.96V27.56L53.32 26.18H50.06V28.06H53.08V28.96H55.6ZM55.6 32.22V33.62L53.32 35H50.06V32.88H53.08V32.22H55.6ZM58.7953 27.58L61.1353 26.2H64.2953V28.08H61.2953V32.84H64.2953V34.98H61.1353L58.7953 33.6V27.58ZM70.5353 27.58L68.1953 26.2H65.0153V28.08H68.0353V32.84H65.0153V34.98H68.1953L70.5353 33.6V27.58ZM74.1367 26.26H76.6367V27.12L79.6367 26.26V28.12H76.6367V35H74.1367V26.26ZM83.1367 27.36L80.5367 26.26V28.98H83.1367V27.36ZM97.0338 32.44L94.7938 33.8H91.6338V32.2H94.5338V28.08H91.5138V26.2H94.7938L97.0338 27.58V32.44ZM85.0938 26.2H90.6338V28.08H87.6338V32.2H90.5338V33.8H87.6338V38.86H85.0938V26.2ZM112.361 35H109.861V34.1L106.861 35V32.9H109.861V26.26H112.361V35ZM100.441 33.62L102.701 35H105.941V32.9H102.961V26.26H100.441V33.62ZM127.883 33.62L125.603 35H122.383V32.9H125.463V31.28H122.443V29.72H125.603L127.883 31.12V33.62ZM115.963 27.64L118.243 26.26H121.483V28.12H118.483V29.72H121.483V31.28H118.243L115.963 29.9V27.64ZM118.483 32.22V32.9H121.483V35H118.243L115.963 33.62V32.22H118.483ZM125.383 28.98V28.12H122.383V26.26H125.603L127.883 27.64V28.98H125.383Z" fill="black"/>
</svg>
